<?xml version="1.0" standalone="no"?>
<!DOCTYPE svg PUBLIC "-//W3C//DTD SVG 20010904//EN"
 "http://www.w3.org/TR/2001/REC-SVG-20010904/DTD/svg10.dtd">
<svg version="1.0" xmlns="http://www.w3.org/2000/svg"
 width="559.000000pt" height="447.000000pt" viewBox="0 0 559.000000 447.000000"
 preserveAspectRatio="xMidYMid meet">

<g transform="translate(0.000000,447.000000) scale(0.100000,-0.100000)"
fill="#000000" stroke="none">
<path d="M2570 2321 l0 -179 38 -33 37 -33 3 97 3 97 38 0 c30 0 42 6 55 25
25 39 20 45 -39 45 l-55 0 0 45 0 45 175 0 175 0 0 35 0 35 -215 0 -215 0 0
-179z"/>
<path d="M2822 2305 c-16 -36 -17 -35 33 -35 25 0 45 -4 45 -9 0 -4 -25 -28
-55 -52 -30 -24 -55 -47 -55 -50 0 -4 -25 -26 -55 -49 -30 -23 -55 -46 -55
-50 0 -11 117 -105 130 -105 6 0 50 32 100 70 87 68 89 71 90 112 l0 42 -92
-74 c-51 -41 -98 -75 -104 -75 -6 0 -17 7 -24 15 -10 12 -6 20 21 44 195 168
199 172 199 207 l0 34 -83 0 c-80 0 -84 -1 -95 -25z"/>
</g>
</svg>
